<svg width="806" height="575" viewBox="0 0 806 575" fill="none" xmlns="http://www.w3.org/2000/svg">
<path d="M803.594 316.811C799.148 281.668 783.766 247.916 758.743 222.618C729.697 193.278 690.074 178.934 656.919 155.245C640.961 143.857 627.025 129.904 618.34 112.148C609.654 94.3916 605.545 74.9837 597.306 57.108C581.326 22.4216 546.323 1.98132 508.527 1.03592C467.089 0.0144536 430.89 20.9111 400.116 46.676C373.211 69.2352 346.981 97.0648 311.663 105.65C289.922 110.931 267.453 107.421 245.94 102.955C224.428 98.4884 203.263 93.4136 181.348 92.0879C141.693 89.5668 100.287 97.4234 66.5126 119.048C35.8579 138.662 11.9756 170.208 3.87707 205.982C-0.134617 224.163 0.051263 243.02 4.4206 261.119C8.86661 280.288 16.9216 298.359 24.1613 316.594C31.2923 334.589 38.1625 353.323 39.1517 372.84C40.2387 395.192 33.8904 416.926 32.6294 439.126C30.5423 474.845 41.5758 513.552 76.7417 529.255C95.8954 537.807 117.441 540.241 138.181 541.654C161.281 543.24 184.446 542.631 207.568 541.99C216.579 542.979 225.602 543.718 234.385 544.642C278.508 549.26 320.457 564.626 364.232 571.157C400.561 576.59 439.652 575.286 472.796 557.834C488.84 549.38 501.472 537.057 512.266 522.648C522.756 508.641 531.507 493.123 544.149 480.844C558.281 467.075 576.619 461.751 595.936 460.088C617.796 458.208 639.798 458.415 661.691 456.633C684.074 454.818 706.891 452.731 728.871 447.939C747.883 443.832 766.167 435.823 778.723 420.446C801.605 392.4 808.04 351.899 803.594 316.811Z" fill="#083576" stroke="#235CB0" stroke-miterlimit="10"/>
</svg>
