<svg width="1440" height="1024" viewBox="0 0 1440 1024" fill="none" xmlns="http://www.w3.org/2000/svg">
<g clip-path="url(#clip0)">
<rect width="1440" height="1024" fill="#E6F6FF"/>
<path d="M1382.18 377.704C1372.87 358.233 1373.13 333.732 1358.08 318.264C1341.87 301.598 1315.13 302.684 1292.16 306.227C1260.25 311.137 1228.49 318.532 1196.22 318.308C1163.95 318.085 1130.18 309.22 1107.55 286.153C1086.72 264.948 1076.83 233.484 1052.1 216.953C1034.1 204.922 1011.03 203.01 989.519 205.56C934.105 212.111 882.842 247.431 856.935 296.872C850.466 309.261 845.711 324.622 850.606 337.114C851.279 338.736 851.451 340.522 851.1 342.242C850.749 343.962 849.89 345.538 848.635 346.766C842.792 355.722 844.212 367.913 849.091 377.481C853.97 387.049 861.793 394.699 868.921 402.725C908.063 446.74 930.312 506.515 978.854 539.871C1009.07 560.635 1046.39 568.652 1083 570.785C1116.75 572.708 1150.58 570.146 1184.46 570.174C1211.41 570.21 1238.56 571.98 1264.65 578.743C1329.28 595.495 1385.64 645.778 1404.05 709.926C1408.19 724.372 1410.51 739.419 1416.65 753.126C1422.79 766.833 1433.78 779.502 1448.47 782.653C1465.56 786.326 1482.45 776.49 1496.6 766.191C1516.91 751.399 1536.15 734.392 1549.32 712.995C1572.33 675.65 1574.4 628.736 1566.8 585.55C1557.42 532.035 1531.93 478.588 1486.18 449.297C1450.08 426.183 1400.67 416.403 1382.18 377.704Z" fill="#AFC8ED"/>
<path d="M1218.89 821.336C1190.35 793.776 1156 769.743 1116.69 764.284L1117.08 764.501C1098.21 761.911 1078.37 769.782 1060.61 778.484C1042.86 787.185 1025.53 796.82 1008.73 807.268C994.445 816.164 980.49 825.663 965.326 832.928C918.617 855.272 864.394 854.528 812.83 849.66C761.266 844.792 709.137 836.293 658.041 844.687L657.985 845.285C586.804 852.381 536.485 900.18 508.076 965.761C500.622 982.965 495.578 1002.57 501.557 1020.35C507.411 1037.86 523.393 1050.75 540.979 1056.29C558.565 1061.83 577.688 1060.83 595.807 1057.23C627.466 1050.94 657.04 1037.04 687.667 1026.93C718.295 1016.82 751.821 1010.56 782.764 1019.85C818.086 1030.51 844.209 1059.49 874.225 1080.94C929.527 1120.44 1005.64 1134.16 1067.22 1105.41C1096.3 1091.83 1120.65 1069.97 1143.36 1047.3C1171.1 1019.62 1197.13 990.26 1221.29 959.4C1240.01 935.481 1258.52 907.159 1253.87 877.152C1250.42 855.057 1234.97 836.864 1218.89 821.336Z" fill="#AFC8ED"/>
<path d="M1516.89 -161.664C1488.35 -189.224 1454 -213.257 1414.69 -218.717L1415.08 -218.499C1396.21 -221.09 1376.37 -213.218 1358.61 -204.517C1340.86 -195.815 1323.53 -186.18 1306.73 -175.732C1292.44 -166.836 1278.49 -157.337 1263.33 -150.072C1216.62 -127.728 1162.39 -128.472 1110.83 -133.34C1059.27 -138.208 1007.14 -146.707 956.041 -138.313L955.985 -137.716C884.804 -130.619 834.485 -82.8204 806.076 -17.2393C798.622 -0.0351844 793.578 19.5658 799.557 37.3541C805.411 54.8594 821.393 67.7543 838.979 73.2908C856.565 78.8273 875.688 77.8333 893.807 74.2325C925.466 67.939 955.04 54.0422 985.667 43.933C1016.29 33.8237 1049.82 27.5643 1080.76 36.8543C1116.09 47.509 1142.21 76.4912 1172.23 97.9373C1227.53 137.441 1303.64 151.161 1365.22 122.409C1394.3 108.828 1418.65 86.9735 1441.36 64.3024C1469.1 36.6152 1495.13 7.2595 1519.29 -23.6006C1538.01 -47.5196 1556.52 -75.8417 1551.87 -105.848C1548.42 -127.944 1532.97 -146.136 1516.89 -161.664Z" fill="#AFC8ED"/>
<path d="M133.37 581.301C118.826 593.779 116.248 611.468 112.857 628.569C110.094 642.355 111.702 656.508 111.474 670.491C111.314 680.592 108.982 689.914 103.32 698.339C84.121 726.907 56.3421 742.165 23.4828 748.952C6.99338 752.361 -9.84157 751.084 -26.5341 749.909C-41.5889 748.833 -55.7487 751.58 -68.7804 759.056C-96.9363 775.19 -114.249 799.223 -122.237 830.752C-124.994 841.597 -115.9 856.122 -106.437 858.587C-91.8782 862.382 -77.4549 866.735 -62.3116 867.741C-38.6752 869.309 -16.7991 875.976 2.55415 890.035C24.2836 905.843 42.1969 925.425 57.0167 947.548C79.6265 981.305 82.599 1017.52 67.0078 1055.03C58.6835 1075.11 49.729 1094.91 41.311 1114.93C35.3941 1129.01 31.2939 1143.79 29.1093 1158.91C27.3451 1171.01 35.2243 1177.6 47.0756 1174.95C58.1787 1172.46 68.263 1167.34 78.5308 1162.75C95.6508 1155.09 112.566 1146.97 129.677 1139.28C151.347 1129.54 173.594 1121.11 196.032 1107.48C204.488 1102.81 212.509 1097.39 219.998 1091.29C240.147 1074.81 246.362 1051.44 250.686 1027.75C255.458 1001.68 262.112 975.993 270.596 950.886C281.403 918.916 288.106 886.434 285.035 852.426C282.097 819.838 268.912 792.32 245.435 769.481C232.067 756.483 217.013 745.493 203.415 732.767C189.055 719.321 181.918 703.445 185.542 683.935C187.725 672.168 193.978 661.727 199.415 651.169C207.144 636.173 212.258 620.333 215.984 603.98C219.22 589.77 211.959 572.413 200.259 567.453C192.187 564.012 183.646 561.528 174.667 562.32C158.686 563.715 145.371 570.959 133.37 581.301Z" fill="#AFC8ED"/>
<path d="M-79.3033 141.141C-79.6761 118.903 -91.1959 96.438 -84.4438 75.2516C-77.1724 52.4273 -52.0287 41.1217 -29.2156 33.811C2.45367 23.6506 35.1351 15.8472 64.7801 0.786346C94.4251 -14.2745 121.473 -37.9909 131.714 -69.6706C141.157 -98.8068 135.79 -132.364 150.972 -158.984C162.025 -178.359 182.415 -190.743 203.417 -198.294C249.098 -214.734 316.501 -198.541 354.154 -175.72C433.222 -127.798 403.054 40.0824 367.13 104.974C348.832 138.025 318.121 162.594 285.36 181.41C255.129 198.721 222.767 211.931 191.551 227.551C166.727 239.989 142.515 254.117 121.58 272.361C69.7076 317.557 40.9016 389.852 53.4601 457.459C56.2968 472.68 61.0778 487.621 61.7304 503.081C62.3829 518.541 58.0814 535.28 45.989 544.948C31.9256 556.2 11.8293 554.908 -5.94977 551.925C-31.4797 547.638 -57.0495 540.82 -79.0369 527.157C-117.432 503.321 -140.937 461.028 -153.815 417.723C-169.797 364.071 -170.902 303.068 -142.216 255.01C-119.576 217.085 -78.5309 185.325 -79.3033 141.141Z" fill="#AFC8ED"/>
</g>
<defs>
<clipPath id="clip0">
<rect width="1440" height="1024" fill="white"/>
</clipPath>
</defs>
</svg>
