<svg width="1175" height="647" viewBox="0 0 1175 647" fill="none" xmlns="http://www.w3.org/2000/svg">
<path d="M1156.2 305.792C1157.67 293.738 1153.91 281.064 1147.09 271.106C1138.82 259.048 1126.87 251.348 1112.66 248.153C1104.59 246.334 1096.35 245.313 1088.68 242.027C1084.72 240.284 1080.91 238.211 1077.29 235.828C1068.92 227.437 1058.07 221.953 1046.35 220.186C1040.34 219.296 1033.48 219.632 1030.46 225.815C1027.6 231.667 1030.96 238.432 1033.73 243.676C1039.31 254.23 1047.21 263.279 1053.94 273.061C1057.37 277.829 1060.21 282.991 1062.41 288.435C1064.57 294.225 1064.7 299.92 1065.07 305.982C1065.45 312.043 1066.82 318.342 1071.44 322.877C1076.37 327.698 1083.22 330.214 1089.73 332.044C1102.64 335.616 1116.24 335.836 1129.24 332.684C1135.82 331.074 1142.93 328.74 1147.93 324.013C1152.92 319.286 1155.38 312.552 1156.2 305.792Z" fill="#083576"/>
<path d="M114.165 366.789C105.214 348.597 91.9684 331.402 90.9373 311.115C90.4161 300.716 93.2035 290.284 92.0024 279.953C90.8014 269.623 83.2778 258.646 72.8761 259.009C62.6785 259.371 56.2086 269.928 52.8547 279.545C50.8709 285.029 49.5657 290.735 48.9683 296.536C48.8323 296.355 48.7077 296.174 48.5604 296.004L48.889 297.624C48.6163 301.166 48.7952 304.729 49.4215 308.226C46.878 313.303 42.5662 317.275 37.2976 319.395C27.8365 323.02 16.789 322.861 8.58557 328.808C-3.39101 337.496 -2.69984 358.531 9.79796 366.415C23.9387 375.33 45.9543 367.91 56.8092 380.631C64.0042 389.07 61.9533 401.881 65.8171 412.28C72.3096 429.735 98.1663 435.954 111.888 423.358C126.833 409.663 123.128 384.981 114.165 366.789Z" fill="#083576"/>
<path d="M128.557 442.307L127.246 440.975C124.825 438.465 120.957 440.426 118.095 442.901C115.966 444.587 114.104 446.849 112.652 449.515C109.472 455.885 111.022 464.862 115.706 468.024C120.39 471.186 127.259 468.167 130.393 461.766C133.528 455.365 132.63 446.605 128.557 442.307Z" fill="#083576"/>
<path d="M990.845 197.942L988.387 197.175C983.812 195.694 980.734 200.842 979.182 205.942C977.916 209.539 977.368 213.676 977.58 218.039C978.42 228.259 986.57 238.483 994.221 239.216C1001.87 239.95 1007.67 231.39 1006.75 221.161C1005.84 210.932 998.594 200.529 990.845 197.942Z" fill="#083576"/>
<path d="M1028.51 356.599C1023.49 316.917 1006.12 278.806 977.852 250.241C945.046 217.112 900.293 200.915 862.845 174.166C844.821 161.307 829.081 145.552 819.271 125.503C809.461 105.453 804.82 83.5389 795.513 63.3545C777.464 24.1882 737.93 1.10806 695.239 0.0405614C648.436 -1.11283 607.551 22.4826 572.792 51.5751C542.404 77.048 512.777 108.472 472.886 118.165C448.331 124.128 422.952 120.165 398.654 115.122C374.356 110.079 350.451 104.349 325.699 102.852C280.909 100.005 234.142 108.877 195.995 133.294C161.371 155.442 134.397 191.062 125.25 231.455C120.718 251.985 120.928 273.277 125.863 293.714C130.885 315.359 139.983 335.764 148.16 356.353C156.214 376.673 163.974 397.826 165.091 419.863C166.319 445.103 159.149 469.643 157.725 494.711C155.367 535.043 167.829 578.749 207.548 596.48C229.182 606.136 253.517 608.885 276.943 610.48C303.034 612.271 329.198 611.584 355.313 610.86C365.491 611.977 375.682 612.811 385.603 613.854C435.439 619.069 482.819 636.419 532.262 643.793C573.295 649.928 617.446 648.456 654.882 628.75C673.004 619.204 687.271 605.29 699.463 589.02C711.311 573.203 721.195 555.682 735.474 541.816C751.435 526.27 772.148 520.258 793.966 518.38C818.657 516.258 843.507 516.491 868.235 514.478C893.515 512.429 919.287 510.073 944.113 504.662C965.587 500.024 986.238 490.981 1000.42 473.619C1026.26 441.95 1033.53 396.219 1028.51 356.599Z" fill="#083576"/>
</svg>
