<svg width="700" height="667" viewBox="0 0 700 667" fill="none" xmlns="http://www.w3.org/2000/svg">
<g clip-path="url(#clip0)">
<rect width="700" height="667" fill="#E5F6FF"/>
<path d="M1028.89 47.7203C1004.84 35.2769 975.889 24.4258 942.76 21.9608L943.09 22.0591C927.189 20.8894 910.461 24.4435 895.5 28.3722C880.538 32.3008 865.935 36.6514 851.767 41.3687C839.732 45.3851 827.971 49.674 815.191 52.9541C775.824 63.0427 730.124 62.7066 686.665 60.5087C643.207 58.3108 599.272 54.4734 556.208 58.2632L556.16 58.5332C496.169 61.7373 453.759 83.3187 429.816 112.929C423.533 120.697 419.283 129.547 424.321 137.578C429.256 145.482 442.725 151.304 457.547 153.804C472.368 156.303 488.485 155.855 503.757 154.229C530.438 151.387 555.364 145.113 581.177 140.548C606.99 135.984 635.246 133.158 661.325 137.352C691.095 142.163 713.111 155.249 738.41 164.932C785.018 182.768 849.166 188.963 901.067 175.981C925.578 169.849 946.095 159.981 965.237 149.745C988.62 137.244 1010.55 123.99 1030.92 110.057C1046.7 99.2572 1062.29 86.4696 1058.38 72.9213C1055.47 62.9452 1042.45 54.7314 1028.89 47.7203Z" fill="#AFC8ED"/>
<path d="M909.617 353.19C909.922 343.445 919.345 333.601 913.822 324.317C907.874 314.315 887.307 309.361 868.646 306.158C842.74 301.705 816.007 298.286 791.757 291.686C767.508 285.087 745.383 274.694 737.005 260.812C729.281 248.045 733.672 233.34 721.253 221.675C712.211 213.185 695.533 207.758 678.353 204.45C634.103 195.918 582.15 199.846 544 214.591C534.457 218.291 525.088 223.537 524.075 229.57C523.972 230.361 523.43 231.117 522.517 231.741C521.604 232.365 520.364 232.829 518.955 233.071C511.177 235.511 507.658 240.721 507.735 245.57C507.811 250.42 510.828 255.088 513.182 259.768C526.123 285.443 520.393 314.076 544.436 337.341C559.404 351.824 584.525 362.59 611.324 370.835C636.052 378.421 662.524 384.21 688.059 391.054C708.365 396.505 728.17 402.696 745.295 410.69C787.727 430.495 811.29 462.174 801.017 491.8C798.697 498.469 794.786 505.017 794.252 511.791C793.718 518.566 797.237 525.901 807.128 530.137C818.632 535.068 835.071 534.502 849.614 533.195C870.498 531.316 891.414 528.328 909.399 522.341C940.806 511.896 960.034 493.364 970.568 474.387C983.64 450.877 984.545 424.146 961.079 403.087C942.56 386.468 908.985 372.551 909.617 353.19Z" fill="#AFC8ED"/>
<path d="M821.543 470.291C784.564 456.218 743.05 444.91 702.767 445.549L703.222 445.644C683.896 445.969 667.039 452.839 652.505 460.008C637.972 467.176 624.161 474.877 611.123 483.025C600.053 489.96 589.499 497.233 577.03 503.253C538.609 521.775 485.265 526.838 433.173 529.09C381.082 531.342 327.247 531.414 279.959 541.788L280.1 542.162C212.719 553.783 179.102 588.355 172.77 631.651C171.107 643.009 172.59 655.598 184.273 665.948C195.742 676.137 215.618 682.454 234.654 684.074C253.69 685.694 272.091 683.134 288.656 679.071C317.596 671.97 342.005 660.397 368.686 651.05C395.367 641.703 426.148 634.433 459.495 637.005C497.576 639.973 532.654 655.168 569.076 665.324C636.176 684.03 715.208 684.732 766.093 660.748C790.123 649.419 806.803 633.476 821.616 617.196C839.714 597.313 855.582 576.578 869.132 555.105C879.632 538.462 888.472 519.13 874.092 501.116C863.471 487.855 842.385 478.22 821.543 470.291Z" fill="#AFC8ED"/>
<path d="M-73.6989 436.39C-85.957 442.024 -88.1295 450.011 -90.988 457.732C-93.3162 463.956 -91.9612 470.347 -92.1531 476.66C-92.2884 481.221 -94.2535 485.43 -99.0258 489.234C-115.207 502.132 -138.619 509.021 -166.313 512.085C-180.211 513.625 -194.399 513.048 -208.468 512.517C-221.156 512.032 -233.09 513.272 -244.073 516.647C-267.804 523.932 -282.395 534.783 -289.127 549.019C-291.451 553.915 -283.786 560.473 -275.811 561.586C-263.541 563.299 -251.385 565.265 -238.622 565.719C-218.701 566.427 -200.263 569.437 -183.952 575.785C-165.638 582.923 -150.541 591.764 -138.051 601.752C-118.995 616.994 -116.49 633.346 -129.63 650.282C-136.646 659.35 -144.193 668.287 -151.287 677.325C-156.274 683.683 -159.73 690.356 -161.571 697.183C-163.058 702.648 -156.417 705.621 -146.429 704.425C-137.071 703.3 -128.572 700.991 -119.918 698.918C-105.489 695.46 -91.2332 691.794 -76.8121 688.322C-58.5485 683.923 -39.7985 680.115 -20.8875 673.962C-13.7605 671.854 -7.00043 669.407 -0.688166 666.653C16.2935 659.212 21.5314 648.658 25.1755 637.964C29.1976 626.194 34.8057 614.595 41.9557 603.26C51.0641 588.825 56.7138 574.159 54.1254 558.805C51.6495 544.091 40.5365 531.666 20.7502 521.354C9.48319 515.486 -3.20457 510.524 -14.6649 504.778C-26.7671 498.707 -32.7827 491.539 -29.7281 482.73C-27.8884 477.417 -22.6185 472.703 -18.0363 467.936C-11.5219 461.165 -7.21162 454.013 -4.07167 446.63C-1.34418 440.214 -7.46356 432.377 -17.3245 430.138C-24.1277 428.584 -31.3258 427.463 -38.8934 427.82C-52.3625 428.45 -63.5843 431.721 -73.6989 436.39Z" fill="#AFC8ED"/>
<path d="M-65.0627 70.7465C-59.5663 61.4558 -62.6555 50.5173 -51.9072 42.6567C-40.3301 34.1879 -17.8893 32.9955 1.70468 33.138C28.9082 33.3309 56.2835 34.6441 83.1921 32.519C110.101 30.394 137.247 24.311 153.431 12.5773C168.334 1.78887 172.902 -12.9003 191.602 -21.8432C205.215 -28.3519 224.249 -30.655 242.501 -30.8646C282.205 -31.3276 330.264 -15.2058 353.528 -0.477038C402.379 30.4523 335.307 95.9923 290.565 117.944C267.775 129.125 237.566 135.051 207.264 138.302C179.316 141.28 150.782 142.258 122.509 144.396C100.022 146.103 77.5694 148.598 56.5873 153.26C4.60113 164.806 -36.5471 190.826 -44.3967 220.663C-46.1567 227.382 -46.3361 234.255 -49.8522 240.769C-53.3683 247.283 -61.0591 253.638 -72.9522 255.969C-86.7861 258.683 -102.035 255.346 -115.047 251.628C-133.73 246.289 -151.787 239.892 -165.284 231.152C-188.858 215.898 -196.084 195.051 -194.805 175.265C-193.24 150.749 -178.227 125.251 -143.477 109.284C-116.053 96.6837 -75.9587 89.2101 -65.0627 70.7465Z" fill="#AFC8ED"/>
</g>
<defs>
<clipPath id="clip0">
<rect width="700" height="667" fill="white"/>
</clipPath>
</defs>
</svg>
